<svg width="179" height="30" xmlns="http://www.w3.org/2000/svg">
  <g fill="none" fill-rule="evenodd">
    <path d="M99.449 29.588V.944h3.224v28.644h-3.224zM128 25V6.803h-8.587V25h-5.022V2.835h18.631V25H128zm9.765 0V2.835h7.657c5.394 0 8.463 2.387 8.463 7.068v.124c0 4.681-3.255 6.913-8.308 6.913h-2.821V25h-4.991zm4.991-11.563h2.542c2.449 0 3.751-1.178 3.751-3.379v-.124c0-2.356-1.364-3.286-3.751-3.286h-2.542v6.789zm24.8 11.904c-6.944 0-11.377-4.805-11.377-11.284v-.248c0-6.603 4.836-11.284 11.408-11.284 6.665 0 11.408 4.495 11.408 11.16v.248c0 6.603-4.526 11.408-11.439 11.408zm.093-3.999c3.751 0 6.107-2.883 6.107-7.347v-.248c0-4.309-2.294-7.254-6.169-7.254-3.844 0-6.169 2.821-6.169 7.285v.248c0 4.526 2.604 7.316 6.231 7.316z" fill="#FFF"/>
    <g fill-rule="nonzero">
      <path d="M40.548 9.983c0 2.35-1.394 3.592-4.029 3.592h-2.837V6.394h2.837c2.749 0 4.029 1.1 4.029 3.464v.125zm-4.029-7.202H29.1v22.645h4.582v-8.46h2.931c5.352 0 8.423-2.545 8.423-6.983v-.125c0-4.497-3.105-7.077-8.517-7.077zM53.44 15.07h3.372c2.753 0 4.091 1.082 4.091 3.31v.124c0 2.218-1.324 3.343-3.935 3.343H53.44V15.07zm3.747-3.394H53.44V6.454h9.943V2.781H48.891v22.645h8.202c5.234 0 8.235-2.51 8.235-6.889v-.125c0-4.344-2.891-6.736-8.14-6.736zM77.951 13.592l9.464-10.841h-5.029l-8.293 9.754V2.78H69.51v22.645h4.582V15.403l8.323 10.023h5.458l-9.923-11.834" fill="#FFF"/>
      <path fill="#90D6A4" d="M.538 2.797v20.067L20.774 2.797z"/>
      <path fill="#398289" d="M23.315 5.217l-20.37 20.2h20.37z"/>
    </g>
  </g>
</svg>